<?xml version="1.0" standalone="no"?>
<!DOCTYPE svg PUBLIC "-//W3C//DTD SVG 20010904//EN"
 "http://www.w3.org/TR/2001/REC-SVG-20010904/DTD/svg10.dtd">
<svg version="1.0" xmlns="http://www.w3.org/2000/svg"
 width="204.000000pt" height="204.000000pt" viewBox="0 0 204.000000 204.000000"
 preserveAspectRatio="xMidYMid meet">
<metadata>
Created by potrace 1.14, written by Peter Selinger 2001-2017
</metadata>
<g transform="translate(0.000000,204.000000) scale(0.100000,-0.100000)"
fill="#000000" stroke="none">
<path d="M0 1020 l0 -1020 1020 0 1020 0 0 1020 0 1020 -1020 0 -1020 0 0
-1020z m1084 458 c3 -40 9 -140 12 -221 5 -118 9 -147 20 -143 8 3 53 17 101
32 49 14 131 41 183 60 52 18 95 32 96 31 5 -7 44 -120 42 -122 -2 -1 -32 -14
-68 -28 -36 -14 -103 -43 -150 -65 -47 -21 -96 -42 -110 -45 -57 -15 -58 -21
-9 -94 56 -83 193 -294 202 -309 4 -7 -16 -28 -49 -50 -46 -32 -57 -36 -64
-24 -5 8 -23 35 -42 59 -18 23 -51 67 -73 96 -126 168 -147 195 -155 195 -8 0
-75 -85 -148 -187 -18 -25 -45 -60 -61 -78 -16 -18 -37 -47 -47 -64 -10 -17
-22 -31 -27 -31 -16 0 -102 72 -99 83 3 10 90 145 201 310 49 73 48 79 -9 94
-14 3 -63 24 -110 45 -47 22 -114 51 -150 65 -36 14 -66 27 -68 28 -2 2 37
115 42 122 1 1 44 -13 96 -31 52 -19 134 -46 183 -60 48 -15 93 -29 101 -32
11 -4 15 25 20 143 3 81 9 181 12 221 l6 72 58 0 58 0 6 -72z"/>
</g>
</svg>
